<svg xmlns="http://www.w3.org/2000/svg" xmlns:xlink="http://www.w3.org/1999/xlink" width="180.00006103515625" height="21.932645797729492" viewBox="0 0 180.00006103515625 21.932645797729492" fill="none">
<rect x="0" y="0.1872882843017578" width="5.47283935546875" height="5.4728240966796875"   fill="#FECE00" >
</rect>
<rect x="0.03167724609375" y="10.982137680053711" width="5.47283935546875" height="5.4728240966796875"   fill="#3EE4FF" >
</rect>
<path d="M19.7095 0.0437794L10.9773 0.0437794L10.9773 21.9326L19.7095 21.9326C24.7299 21.9326 28.8017 17.8609 28.8017 12.8405L28.8017 9.13597C28.8017 4.11556 24.7299 0.0437794 19.7095 0.0437794ZM21.9229 10.9821L21.9229 16.455L16.4501 16.455L16.4501 5.50931L21.9229 5.50931L21.9229 10.9821Z"   fill="#0051FF" >
</path>
<rect x="5.50439453125" y="5.516607284545898" width="5.47283935546875" height="5.4728240966796875"   fill="#3EE4FF" >
</rect>
<g opacity="0.5">
<rect x="10.977294921875" y="0.04377937316894531" width="5.47283935546875" height="5.4728240966796875"   fill="#3EE4FF" >
</rect>
</g>
<g opacity="0.8">
<rect x="10.977294921875" y="5.516607284545898" width="5.47283935546875" height="5.4728240966796875"   fill="#3EE4FF" >
</rect>
</g>
<g opacity="0.16">
<rect x="10.977294921875" y="10.982137680053711" width="5.47283935546875" height="5.4728240966796875"   fill="#FFFFFF" >
</rect>
</g>
<rect x="5.50439453125" y="16.43306541442871" width="5.47283935546875" height="5.4728240966796875"   fill="#FECE00" >
</rect>
<path d="M49.1557 15.3507L37.349 15.3507C37.4561 16.2969 37.7115 16.9998 38.1152 17.462C38.6844 18.1284 39.4263 18.4592 40.3433 18.4592C40.9222 18.4592 41.4719 18.3157 41.9924 18.0263C42.3111 17.8438 42.654 17.5203 43.0189 17.0558L48.8201 17.5909C47.9323 19.133 46.862 20.2422 45.6093 20.9111C44.3542 21.5824 42.5567 21.9156 40.2119 21.9156C38.176 21.9156 36.5755 21.6286 35.408 21.0546C34.2405 20.4805 33.2748 19.5684 32.5062 18.3206C31.74 17.0728 31.3557 15.6036 31.3557 13.9156C31.3557 11.5148 32.1243 9.57136 33.664 8.08519C35.2013 6.59901 37.3271 5.85714 40.0368 5.85714C42.2357 5.85714 43.9724 6.19037 45.2445 6.85441C46.5166 7.51844 47.4871 8.48409 48.1536 9.74892C48.8201 11.0138 49.1509 12.658 49.1509 14.6818L49.1509 15.3482L49.1557 15.3507ZM43.1648 12.5291C43.0481 11.3908 42.7416 10.5759 42.2454 10.0846C41.7492 9.59325 41.0949 9.34758 40.2849 9.34758C39.3484 9.34758 38.6017 9.71974 38.0423 10.4616C37.6847 10.9238 37.4585 11.6145 37.3612 12.5316L43.1624 12.5316L43.1648 12.5291Z"   fill="url(#linear_fill_Y8phIJEf_5q1BtwI44sa9)" >
</path>
<path d="M68.9186 15.3507L57.1119 15.3507C57.2189 16.2969 57.4743 16.9998 57.8781 17.462C58.4473 18.1284 59.1891 18.4592 60.1061 18.4592C60.685 18.4592 61.2347 18.3157 61.7553 18.0263C62.0739 17.8438 62.4169 17.5203 62.7817 17.0558L68.5829 17.5909C67.6951 19.133 66.6249 20.2422 65.3722 20.9111C64.1171 21.5824 62.3196 21.9156 59.9748 21.9156C57.9389 21.9156 56.3384 21.6286 55.1709 21.0546C54.0033 20.4805 53.0377 19.5684 52.269 18.3206C51.5028 17.0728 51.1185 15.6036 51.1185 13.9156C51.1185 11.5148 51.8872 9.57136 53.4268 8.08519C54.9641 6.59901 57.09 5.85714 59.7996 5.85714C61.9985 5.85714 63.7352 6.19037 65.0073 6.85441C66.2795 7.51844 67.25 8.48409 67.9165 9.74892C68.5829 11.0138 68.9137 12.658 68.9137 14.6818L68.9137 15.3482L68.9186 15.3507ZM62.9277 12.5291C62.8109 11.3908 62.5044 10.5759 62.0082 10.0846C61.512 9.59325 60.8577 9.34758 60.0477 9.34758C59.1113 9.34758 58.3645 9.71974 57.8051 10.4616C57.4475 10.9238 57.2213 11.6145 57.124 12.5316L62.9252 12.5316L62.9277 12.5291Z"   fill="url(#linear_fill_qS7pm9JAwBfSKt5BUAl51)" >
</path>
<path d="M71.6234 0.362419L77.6411 0.362419L77.6411 11.3105L82.0388 6.2074L89.2873 6.2074L83.7755 11.5902L89.6059 21.5727L82.9704 21.5727L79.8594 15.4139L77.6411 17.5811L77.6411 21.5751L71.6234 21.5751L71.6234 0.362419Z"   fill="url(#linear_fill_RVtQ_s0LPjDHYh0kDVoHU)" >
</path>
<path d="M105.898 12.8915L111.641 14.6283C111.254 16.2385 110.648 17.5836 109.819 18.6635C108.989 19.7435 107.961 20.5584 106.73 21.1081C105.499 21.6578 103.935 21.9326 102.035 21.9326C99.7294 21.9326 97.8468 21.597 96.3849 20.9281C94.9231 20.2592 93.6631 19.0795 92.6026 17.3939C91.5421 15.7058 91.0118 13.5483 91.0118 10.9165C91.0118 7.40899 91.9459 4.71149 93.8115 2.82641C95.6771 0.941326 98.3187 0 101.734 0C104.404 0 106.506 0.539985 108.034 1.61996C109.561 2.69993 110.697 4.3588 111.441 6.59658L105.655 7.8833C105.453 7.23629 105.239 6.76441 105.017 6.46523C104.65 5.96416 104.203 5.57742 103.672 5.30742C103.142 5.03743 102.549 4.90122 101.892 4.90122C100.406 4.90122 99.2673 5.49958 98.4768 6.69387C97.8784 7.57925 97.5792 8.973 97.5792 10.8702C97.5792 13.2199 97.9368 14.8326 98.6495 15.7034C99.3622 16.5766 100.367 17.012 101.658 17.012C102.95 17.012 103.86 16.6593 104.502 15.9563C105.144 15.2534 105.608 14.2293 105.898 12.8891L105.898 12.8915Z"   fill="url(#linear_fill_EIPFxfsiXbKXxet0L2f0f)" >
</path>
<path d="M114.635 0.362419L120.538 0.362419L120.538 21.5727L114.635 21.5727L114.635 0.362419Z"   fill="url(#linear_fill_TvI7vAarDogI6cN6lA0Vi)" >
</path>
<path d="M123.576 13.9326C123.576 11.5878 124.367 9.65649 125.948 8.13869C127.529 6.61847 129.667 5.85957 132.357 5.85957C135.434 5.85957 137.76 6.75225 139.331 8.53517C140.593 9.9727 141.226 11.7435 141.226 13.845C141.226 16.2093 140.442 18.1455 138.874 19.6535C137.307 21.164 135.137 21.918 132.369 21.918C129.901 21.918 127.904 21.2905 126.381 20.0378C124.51 18.486 123.574 16.4501 123.574 13.9326L123.576 13.9326ZM129.48 13.918C129.48 15.2874 129.757 16.2993 130.312 16.956C130.866 17.6128 131.562 17.9387 132.401 17.9387C133.24 17.9387 133.946 17.6152 134.49 16.9682C135.035 16.3212 135.308 15.285 135.308 13.8572C135.308 12.5267 135.033 11.5343 134.483 10.8848C133.933 10.2354 133.252 9.90946 132.442 9.90946C131.584 9.90946 130.876 10.2403 130.316 10.8994C129.757 11.561 129.477 12.5656 129.477 13.9156L129.48 13.918Z"   fill="url(#linear_fill_STn0dYe0BfyVHaje_h7uk)" >
</path>
<path d="M160.252 21.5702L154.754 21.5702L154.754 19.0819C153.935 20.1035 153.108 20.8332 152.273 21.2662C151.439 21.6991 150.415 21.9181 149.199 21.9181C147.579 21.9181 146.307 21.434 145.387 20.4635C144.466 19.493 144.006 18.0019 144.006 15.9855L144.006 6.2074L149.924 6.2074L149.924 14.6574C149.924 15.6231 150.101 16.3066 150.459 16.7128C150.816 17.119 151.318 17.3209 151.965 17.3209C152.668 17.3209 153.244 17.0509 153.694 16.5109C154.142 15.9709 154.368 15.0004 154.368 13.6018L154.368 6.20983L160.257 6.20983L160.257 21.5751L160.252 21.5702Z"   fill="url(#linear_fill_0AzRcQ9_3oPiVScq-7JRO)" >
</path>
<path d="M180 0.362419L180 21.5727L174.488 21.5727L174.488 19.3008C173.717 20.2665 173.012 20.9159 172.377 21.254C171.528 21.6967 170.582 21.9205 169.541 21.9205C167.447 21.9205 165.849 21.1251 164.744 19.5343C163.64 17.9436 163.088 16.0098 163.088 13.7331C163.088 11.1865 163.698 9.23812 164.917 7.88816C166.138 6.5382 167.687 5.862 169.568 5.862C170.485 5.862 171.316 6.01524 172.063 6.32415C172.81 6.63306 173.474 7.09521 174.053 7.71303L174.053 0.362419L180 0.362419ZM174.097 13.845C174.097 12.6386 173.841 11.741 173.33 11.1475C172.82 10.554 172.173 10.2573 171.392 10.2573C170.706 10.2573 170.134 10.5419 169.67 11.111C169.208 11.6802 168.974 12.6361 168.974 13.9764C168.974 15.2315 169.212 16.1485 169.689 16.7322C170.166 17.316 170.757 17.6079 171.462 17.6079C172.214 17.6079 172.842 17.3136 173.343 16.7249C173.844 16.1363 174.094 15.178 174.094 13.845L174.097 13.845Z"   fill="url(#linear_fill_kxVdhap9XVl4KfNYYpRNC)" >
</path>
<defs>
<linearGradient id="linear_fill_Y8phIJEf_5q1BtwI44sa9" x1="31.36053466796875" y1="13.888811111450195" x2="49.155731201171875" y2="13.888811111450195" gradientUnits="userSpaceOnUse">
<stop offset="0" stop-color="#0081FF"  />
<stop offset="1" stop-color="#0000FF"  />
</linearGradient>
<linearGradient id="linear_fill_qS7pm9JAwBfSKt5BUAl51" x1="51.123382568359375" y1="0" x2="68.9185791015625" y2="0" gradientUnits="userSpaceOnUse">
<stop offset="0" stop-color="#0081FF"  />
<stop offset="1" stop-color="#0000FF"  />
</linearGradient>
<linearGradient id="linear_fill_RVtQ_s0LPjDHYh0kDVoHU" x1="71.6234130859375" y1="10.967538833618164" x2="89.60589599609375" y2="10.967538833618164" gradientUnits="userSpaceOnUse">
<stop offset="0" stop-color="#0081FF"  />
<stop offset="1" stop-color="#0000FF"  />
</linearGradient>
<linearGradient id="linear_fill_EIPFxfsiXbKXxet0L2f0f" x1="91.0093994140625" y1="10.967538833618164" x2="111.6407470703125" y2="10.967538833618164" gradientUnits="userSpaceOnUse">
<stop offset="0" stop-color="#0081FF"  />
<stop offset="1" stop-color="#0000FF"  />
</linearGradient>
<linearGradient id="linear_fill_TvI7vAarDogI6cN6lA0Vi" x1="114.63494873046875" y1="10.967535018920898" x2="120.53829956054688" y2="10.967535018920898" gradientUnits="userSpaceOnUse">
<stop offset="0" stop-color="#0081FF"  />
<stop offset="1" stop-color="#0000FF"  />
</linearGradient>
<linearGradient id="linear_fill_STn0dYe0BfyVHaje_h7uk" x1="123.576416015625" y1="-0.000003814697265625" x2="141.22567749023438" y2="-0.000003814697265625" gradientUnits="userSpaceOnUse">
<stop offset="0" stop-color="#0081FF"  />
<stop offset="1" stop-color="#0000FF"  />
</linearGradient>
<linearGradient id="linear_fill_0AzRcQ9_3oPiVScq-7JRO" x1="144.00341796875" y1="14.06151008605957" x2="160.25164794921875" y2="14.06151008605957" gradientUnits="userSpaceOnUse">
<stop offset="0" stop-color="#0081FF"  />
<stop offset="1" stop-color="#0000FF"  />
</linearGradient>
<linearGradient id="linear_fill_kxVdhap9XVl4KfNYYpRNC" x1="163.0877685546875" y1="11.140233993530273" x2="180" y2="11.140233993530273" gradientUnits="userSpaceOnUse">
<stop offset="0" stop-color="#0081FF"  />
<stop offset="1" stop-color="#0000FF"  />
</linearGradient>
</defs>
</svg>
